<?xml version="1.0" encoding="UTF-8" standalone="no"?>
<svg width="25px" height="25px" viewBox="0 0 25 25" version="1.1" xmlns="http://www.w3.org/2000/svg" xmlns:xlink="http://www.w3.org/1999/xlink" xmlns:sketch="http://www.bohemiancoding.com/sketch/ns">
    <!-- Generator: Sketch 3.2.2 (9983) - http://www.bohemiancoding.com/sketch -->
    <title>category-gen</title>
    <desc>Created with Sketch.</desc>
    <defs>
    </defs>
    <g id="Page-1" stroke="none" stroke-width="1" fill="none" fill-rule="evenodd" sketch:type="MSPage">
        <g id="category-gen" sketch:type="MSArtboardGroup">
            <path d="M12.5,21.5 C17.4705627,21.5 21.5,17.4705627 21.5,12.5 C21.5,7.52943725 17.4705627,3.5 12.5,3.5 C7.52943725,3.5 3.5,7.52943725 3.5,12.5 C3.5,17.4705627 7.52943725,21.5 12.5,21.5 Z M12.5,19.5 C16.3659932,19.5 19.5,16.3659932 19.5,12.5 C19.5,8.63400675 16.3659932,5.5 12.5,5.5 C8.63400675,5.5 5.5,8.63400675 5.5,12.5 C5.5,16.3659932 8.63400675,19.5 12.5,19.5 Z M12.5,14.5 C13.6045695,14.5 14.5,13.6045695 14.5,12.5 C14.5,11.3954305 13.6045695,10.5 12.5,10.5 C11.3954305,10.5 10.5,11.3954305 10.5,12.5 C10.5,13.6045695 11.3954305,14.5 12.5,14.5 Z" id="Shadow" fill-opacity="0.6" fill="#000000" sketch:type="MSShapeGroup"></path>
            <path d="M12.9000001,21.9000001 C17.8705628,21.9000001 21.9000001,17.8705628 21.9000001,12.9000001 C21.9000001,7.92943735 17.8705628,3.9000001 12.9000001,3.9000001 C7.92943735,3.9000001 3.9000001,7.92943735 3.9000001,12.9000001 C3.9000001,17.8705628 7.92943735,21.9000001 12.9000001,21.9000001 Z M12.9000001,19.9000001 C16.7659933,19.9000001 19.9000001,16.7659933 19.9000001,12.9000001 C19.9000001,9.03400685 16.7659933,5.9000001 12.9000001,5.9000001 C9.03400685,5.9000001 5.9000001,9.03400685 5.9000001,12.9000001 C5.9000001,16.7659933 9.03400685,19.9000001 12.9000001,19.9000001 Z M12.9000001,14.9000001 C14.0045696,14.9000001 14.9000001,14.0045696 14.9000001,12.9000001 C14.9000001,11.7954306 14.0045696,10.9000001 12.9000001,10.9000001 C11.7954306,10.9000001 10.9000001,11.7954306 10.9000001,12.9000001 C10.9000001,14.0045696 11.7954306,14.9000001 12.9000001,14.9000001 Z" id="Symbol" fill="#FFFFFF" sketch:type="MSShapeGroup"></path>
        </g>
    </g>
</svg>