<?xml version="1.0" encoding="UTF-8" standalone="no"?>
<svg width="25px" height="25px" viewBox="0 0 25 25" version="1.1" xmlns="http://www.w3.org/2000/svg" xmlns:xlink="http://www.w3.org/1999/xlink" xmlns:sketch="http://www.bohemiancoding.com/sketch/ns">
    <!-- Generator: Sketch 3.2.2 (9983) - http://www.bohemiancoding.com/sketch -->
    <title>category-other</title>
    <desc>Created with Sketch.</desc>
    <defs>
    </defs>
    <g id="Page-1" stroke="none" stroke-width="1" fill="none" fill-rule="evenodd" sketch:type="MSPage">
        <g id="category-other" sketch:type="MSArtboardGroup">
            <path d="M19.8988351,15.6634776 L16.0801995,15.6634776 L16.0801995,10.2375 L12.9262893,10.2375 L12.9262893,15.5601257 C13.7088778,15.7496052 14.3382392,16.1307117 14.8143925,16.7034567 C15.2905457,17.2762016 15.5286188,17.9156854 15.5286188,18.6219273 C15.5286188,19.4918106 15.1868307,20.2389517 14.5032444,20.8633729 C13.8196581,21.487794 13.0017239,21.8 12.0494174,21.8 C11.097111,21.8 10.2791768,21.487794 9.59559049,20.8633729 C8.91200416,20.2389517 8.57021612,19.4918106 8.57021612,18.6219273 C8.57021612,17.9156854 8.80828916,17.2762016 9.2844424,16.7034567 C9.76059565,16.1307117 10.3946714,15.7496052 11.1866887,15.5601257 L11.1866887,10.2375 L8.01863542,10.2375 L8.01863542,15.6634776 L4.19999981,15.6634776 L4.19999981,14.1519553 L6.29317785,14.1519553 L6.29317785,4.8115223 L4.19999981,4.8115223 L4.19999981,3.29999995 L8.01863542,3.29999995 L8.01863542,8.72597761 L11.1866887,8.72597761 L11.1866887,3.29999995 L12.9262893,3.29999995 L12.9262893,8.72597761 L16.0801995,8.72597761 L16.0801995,3.29999995 L19.8988351,3.29999995 L19.8988351,4.8115223 L17.8198001,4.8115223 L17.8198001,14.1519553 L19.8988351,14.1519553 L19.8988351,15.6634776 Z M12.0494174,20.4822625 C12.5962865,20.4822625 13.0724326,20.2970921 13.47787,19.9267458 C13.8833074,19.5563994 14.0860231,19.1214643 14.0860231,18.6219273 C14.0860231,18.1223904 13.8833074,17.6896084 13.47787,17.3235684 C13.0724326,16.9575284 12.5962865,16.7745111 12.0494174,16.7745111 C11.5025484,16.7745111 11.0287594,16.9575284 10.6280364,17.3235684 C10.2273134,17.6896084 10.0269549,18.1223904 10.0269549,18.6219273 C10.0269549,19.130077 10.2273134,19.5671653 10.6280364,19.9332053 C11.0287594,20.2992453 11.5025484,20.4822625 12.0494174,20.4822625 L12.0494174,20.4822625 Z" id="Shadow" fill-opacity="0.6" fill="#000000" sketch:type="MSShapeGroup"></path>
            <path d="M20.2988352,16.0634777 L16.4801996,16.0634777 L16.4801996,10.6375 L13.3262894,10.6375 L13.3262894,15.9601257 C14.1088779,16.1496053 14.7382393,16.5307118 15.2143926,17.1034568 C15.6905458,17.6762017 15.9286189,18.3156855 15.9286189,19.0219274 C15.9286189,19.8918107 15.5868308,20.6389518 14.9032445,21.263373 C14.2196582,21.8877941 13.401724,22.2 12.4494175,22.2 C11.4971111,22.2 10.6791769,21.8877941 9.99559059,21.263373 C9.31200425,20.6389518 8.97021621,19.8918107 8.97021621,19.0219274 C8.97021621,18.3156855 9.20828926,17.6762017 9.6844425,17.1034568 C10.1605957,16.5307118 10.7946715,16.1496053 11.5866888,15.9601257 L11.5866888,10.6375 L8.41863551,10.6375 L8.41863551,16.0634777 L4.5999999,16.0634777 L4.5999999,14.5519554 L6.69317794,14.5519554 L6.69317794,5.21152239 L4.5999999,5.21152239 L4.5999999,3.70000005 L8.41863551,3.70000005 L8.41863551,9.1259777 L11.5866888,9.1259777 L11.5866888,3.70000005 L13.3262894,3.70000005 L13.3262894,9.1259777 L16.4801996,9.1259777 L16.4801996,3.70000005 L20.2988352,3.70000005 L20.2988352,5.21152239 L18.2198002,5.21152239 L18.2198002,14.5519554 L20.2988352,14.5519554 L20.2988352,16.0634777 Z M12.4494175,20.8822626 C12.9962866,20.8822626 13.4724327,20.6970922 13.8778701,20.3267459 C14.2833075,19.9563995 14.4860232,19.5214644 14.4860232,19.0219274 C14.4860232,18.5223905 14.2833075,18.0896085 13.8778701,17.7235685 C13.4724327,17.3575285 12.9962866,17.1745112 12.4494175,17.1745112 C11.9025485,17.1745112 11.4287595,17.3575285 11.0280365,17.7235685 C10.6273135,18.0896085 10.426955,18.5223905 10.426955,19.0219274 C10.426955,19.5300771 10.6273135,19.9671653 11.0280365,20.3332054 C11.4287595,20.6992454 11.9025485,20.8822626 12.4494175,20.8822626 L12.4494175,20.8822626 Z" id="Symbol" fill="#FFFFFF" sketch:type="MSShapeGroup"></path>
        </g>
    </g>
</svg>