<?xml version="1.0" encoding="UTF-8" standalone="no"?>
<svg width="25px" height="25px" viewBox="0 0 25 25" version="1.1" xmlns="http://www.w3.org/2000/svg" xmlns:xlink="http://www.w3.org/1999/xlink" xmlns:sketch="http://www.bohemiancoding.com/sketch/ns">
    <!-- Generator: Sketch 3.2.2 (9983) - http://www.bohemiancoding.com/sketch -->
    <title>category-slash</title>
    <desc>Created with Sketch.</desc>
    <defs>
    </defs>
    <g id="Page-1" stroke="none" stroke-width="1" fill="none" fill-rule="evenodd" sketch:type="MSPage">
        <g id="category-slash" sketch:type="MSArtboardGroup">
            <path d="M20.363456,12.3076118 L16.2717519,12.3076118 L16.2717519,12.3076118 C15.7865222,15.699906 12.8691126,18.3076118 9.34264071,18.3076118 C5.47664746,18.3076118 2.34264071,15.1736051 2.34264071,11.3076118 C2.34264071,7.4416186 5.47664746,4.30761184 9.34264071,4.30761184 C12.8691126,4.30761184 15.7865222,6.9153177 16.2717519,10.3076118 L20.4639611,10.3076118 L17.8781746,7.72182541 L19.2923882,6.30761184 L23.1814755,10.1966991 L24.2421356,11.2573593 L19.2923882,16.2071068 L17.8781746,14.7928932 L20.363456,12.3076118 L20.363456,12.3076118 Z M9.34264071,16.3076118 C12.1040645,16.3076118 14.3426407,14.0690356 14.3426407,11.3076118 C14.3426407,8.5461881 12.1040645,6.30761184 9.34264071,6.30761184 C6.58121696,6.30761184 4.34264071,8.5461881 4.34264071,11.3076118 C4.34264071,14.0690356 6.58121696,16.3076118 9.34264071,16.3076118 Z" id="Shadow" fill-opacity="0.6" fill="#000000" sketch:type="MSShapeGroup" transform="translate(13.292388, 11.307612) rotate(-45.000000) translate(-13.292388, -11.307612) "></path>
            <path d="M20.763456,12.8923881 L16.6717518,12.8923881 L16.6717518,12.8923881 C16.1865222,16.2846823 13.2691126,18.8923881 9.74264069,18.8923881 C5.87664744,18.8923881 2.74264069,15.7583814 2.74264069,11.8923881 C2.74264069,8.02639489 5.87664744,4.89238814 9.74264069,4.89238814 C13.2691126,4.89238814 16.1865222,7.500094 16.6717518,10.8923881 L20.863961,10.8923881 L18.2781746,8.30660171 L19.6923882,6.89238814 L23.5814755,10.7814754 L24.6421356,11.8421356 L19.6923882,16.7918831 L18.2781746,15.3776695 L20.763456,12.8923881 L20.763456,12.8923881 Z M9.74264069,16.8923881 C12.5040644,16.8923881 14.7426407,14.6538119 14.7426407,11.8923881 C14.7426407,9.13096439 12.5040644,6.89238814 9.74264069,6.89238814 C6.98121694,6.89238814 4.74264069,9.13096439 4.74264069,11.8923881 C4.74264069,14.6538119 6.98121694,16.8923881 9.74264069,16.8923881 Z" id="Symbol" fill="#FFFFFF" sketch:type="MSShapeGroup" transform="translate(13.692388, 11.892388) rotate(-45.000000) translate(-13.692388, -11.892388) "></path>
        </g>
    </g>
</svg>