<?xml version="1.0" encoding="UTF-8" standalone="no"?>
<svg width="25px" height="25px" viewBox="0 0 25 25" version="1.1" xmlns="http://www.w3.org/2000/svg" xmlns:xlink="http://www.w3.org/1999/xlink" xmlns:sketch="http://www.bohemiancoding.com/sketch/ns">
    <!-- Generator: Sketch 3.2.2 (9983) - http://www.bohemiancoding.com/sketch -->
    <title>category-het</title>
    <desc>Created with Sketch.</desc>
    <defs>
    </defs>
    <g id="Page-1" stroke="none" stroke-width="1" fill="none" fill-rule="evenodd" sketch:type="MSPage">
        <g id="category-het" sketch:type="MSArtboardGroup">
            <path d="M18.5053994,4.7922278 L16.0704661,7.22716101 L16.0704661,7.22716101 C16.3385009,7.59094466 16.5653204,7.98847396 16.7437972,8.41243653 C17.7102796,10.5118829 17.3553315,13.0462555 15.6625953,14.7389917 C15.1854041,15.216183 14.6413275,15.5870594 14.0589646,15.8519875 C13.5453403,16.1098914 12.9875631,16.2895042 12.4004041,16.375671 L12.4004041,16.375671 L12.4004041,18.896159 L15.6004041,18.896159 L15.6004041,20.3735417 L12.4004041,20.3735417 L12.4004041,23 L10.8004041,23 L10.8004041,20.3735417 L7.60040413,20.3735417 L7.60040413,18.896159 L10.8004041,18.896159 L10.8004041,18.896159 L10.8004041,16.375671 C8.75965549,16.0761869 7.07383779,14.6478734 6.36313815,12.7270179 L6.36313815,12.7270179 C5.51511951,10.6713228 5.90162118,8.24958448 7.53740466,6.61380101 C8.16309481,5.98811085 8.90377617,5.54520017 9.69497954,5.28424287 C10.2897519,5.06346597 10.9313772,4.9430995 11.6004041,4.9430995 C12.8417953,4.9430995 13.9888438,5.35751464 14.9172874,6.05885674 L17.5761441,3.39999998 L17.5761441,3.39999998 L14.5,3.39999998 L14.5,1.89999998 L19,1.89999998 L19,1.93161427 L19.9053149,1.89999998 L20.0937721,7.29671044 L18.5946859,7.34905969 L18.5053994,4.7922278 Z M14.5018538,13.5782502 C16.063951,12.016153 16.0310767,9.45061883 14.4284271,7.84796922 C12.8257775,6.24531962 10.2602434,6.21244537 8.69814618,7.77454253 C7.13604902,9.3366397 7.16892327,11.9021739 8.77157288,13.5048235 C10.3742225,15.1074731 12.9397566,15.1403473 14.5018538,13.5782502 Z" id="Shadow" fill-opacity="0.6" fill="#000000" sketch:type="MSShapeGroup"></path>
            <path d="M18.8785569,5.19222777 L16.4436237,7.62716099 L16.4436237,7.62716099 C16.7116584,7.99094463 16.9384779,8.38847394 17.1169547,8.81243651 C18.0834371,10.9118829 17.728489,13.4462555 16.0357529,15.1389917 C15.5585616,15.6161829 15.014485,15.9870594 14.4321221,16.2519875 C13.9184979,16.5098914 13.3607206,16.6895042 12.7735616,16.775671 L12.7735616,16.775671 L12.7735616,19.296159 L15.9735616,19.296159 L15.9735616,20.7735417 L12.7735616,20.7735417 L12.7735616,23.4 L11.1735616,23.4 L11.1735616,20.7735417 L7.97356165,20.7735417 L7.97356165,19.296159 L11.1735616,19.296159 L11.1735616,19.296159 L11.1735616,16.775671 C9.13281301,16.4761868 7.44699531,15.0478734 6.73629567,13.1270179 L6.73629567,13.1270179 C5.88827703,11.0713228 6.2747787,8.64958446 7.91056218,7.01380098 C8.53625233,6.38811083 9.2769337,5.94520015 10.0681371,5.68424284 C10.6629094,5.46346595 11.3045347,5.34309947 11.9735616,5.34309947 C13.2149528,5.34309947 14.3620014,5.75751462 15.2904449,6.45885672 L17.9493017,3.79999995 L17.9493017,3.79999995 L14.8731575,3.79999995 L14.8731575,2.29999995 L19.3731575,2.29999995 L19.3731575,2.33161424 L20.2784724,2.29999995 L20.4669297,7.69671042 L18.9678434,7.74905966 L18.8785569,5.19222777 Z M14.8750113,13.9782501 C16.4371085,12.416153 16.4042343,9.85061881 14.8015846,8.2479692 C13.198935,6.64531959 10.6334009,6.61244534 9.0713037,8.17454251 C7.50920654,9.73663968 7.54208079,12.3021738 9.1447304,13.9048235 C10.74738,15.5074731 13.3129142,15.5403473 14.8750113,13.9782501 Z" id="Symbol" fill="#FFFFFF" sketch:type="MSShapeGroup"></path>
        </g>
    </g>
</svg>