<?xml version="1.0" encoding="UTF-8" standalone="no"?>
<svg width="25px" height="25px" viewBox="0 0 25 25" version="1.1" xmlns="http://www.w3.org/2000/svg" xmlns:xlink="http://www.w3.org/1999/xlink" xmlns:sketch="http://www.bohemiancoding.com/sketch/ns">
    <!-- Generator: Sketch 3.2.2 (9983) - http://www.bohemiancoding.com/sketch -->
    <title>category-femslash</title>
    <desc>Created with Sketch.</desc>
    <defs>
    </defs>
    <g id="Page-1" stroke="none" stroke-width="1" fill="none" fill-rule="evenodd" sketch:type="MSPage">
        <g id="category-femslash" sketch:type="MSArtboardGroup">
            <path d="M13.1999998,15.5291112 L13.1999998,18.6 L17.1999998,18.6 L17.1999998,20.4 L13.1999998,20.4 L13.1999998,23.6 L11.1999998,23.6 L11.1999998,20.4 L7.19999981,20.4 L7.19999981,18.6 L11.1999998,18.6 L11.1999998,18.6 L11.1999998,15.5291112 C7.80770567,15.0438815 5.19999981,12.1264719 5.19999981,8.60000002 C5.19999981,4.73400678 8.33400656,1.60000002 12.1999998,1.60000002 C16.0659931,1.60000002 19.1999998,4.73400678 19.1999998,8.60000002 C19.1999998,12.1264719 16.592294,15.0438815 13.1999998,15.5291112 L13.1999998,15.5291112 Z M12.1999998,13.6 C14.9614236,13.6 17.1999998,11.3614238 17.1999998,8.60000002 C17.1999998,5.83857627 14.9614236,3.60000002 12.1999998,3.60000002 C9.43857606,3.60000002 7.19999981,5.83857627 7.19999981,8.60000002 C7.19999981,11.3614238 9.43857606,13.6 12.1999998,13.6 Z" id="Shadow" fill-opacity="0.6" fill="#000000" sketch:type="MSShapeGroup"></path>
            <path d="M13.5999999,15.9291111 L13.5999999,19 L17.5999999,19 L17.5999999,20.8 L13.5999999,20.8 L13.5999999,24 L11.5999999,24 L11.5999999,20.8 L7.5999999,20.8 L7.5999999,19 L11.5999999,19 L11.5999999,19 L11.5999999,15.9291111 C8.20770576,15.4438815 5.5999999,12.5264719 5.5999999,9 C5.5999999,5.13400675 8.73400666,2 12.5999999,2 C16.4659932,2 19.5999999,5.13400675 19.5999999,9 C19.5999999,12.5264719 16.992294,15.4438815 13.5999999,15.9291111 L13.5999999,15.9291111 Z M12.5999999,14 C15.3614237,14 17.5999999,11.7614237 17.5999999,9 C17.5999999,6.23857625 15.3614237,4 12.5999999,4 C9.83857616,4 7.5999999,6.23857625 7.5999999,9 C7.5999999,11.7614237 9.83857616,14 12.5999999,14 Z" id="Symbol" fill="#FFFFFF" sketch:type="MSShapeGroup"></path>
        </g>
    </g>
</svg>