<?xml version="1.0" encoding="UTF-8" standalone="no"?>
<svg width="25px" height="25px" viewBox="0 0 25 25" version="1.1" xmlns="http://www.w3.org/2000/svg" xmlns:xlink="http://www.w3.org/1999/xlink" xmlns:sketch="http://www.bohemiancoding.com/sketch/ns">
    <!-- Generator: Sketch 3.2.2 (9983) - http://www.bohemiancoding.com/sketch -->
    <title>complete-yes</title>
    <desc>Created with Sketch.</desc>
    <defs>
    </defs>
    <g id="Page-1" stroke="none" stroke-width="1" fill="none" fill-rule="evenodd" sketch:type="MSPage">
        <g id="complete-yes" sketch:type="MSArtboardGroup">
            <path d="M11.7148438,21.9516602 C10.958004,20.5844658 10.3761414,19.5794303 9.96923828,18.9365234 L9.32226562,17.9233398 L8.83398438,17.1787109 C7.76789832,15.5185464 6.65706958,14.1473036 5.50146484,13.0649414 C6.16064783,12.5196913 6.77506226,12.2470703 7.34472656,12.2470703 C8.04459985,12.2470703 8.66715222,12.5034154 9.21240234,13.0161133 C9.75765247,13.5288112 10.4453083,14.5053639 11.2753906,15.9458008 C12.2194058,12.8777516 13.4197518,9.96843823 14.8764648,7.21777344 C15.6821329,5.72037012 16.4003061,4.71330011 17.0310059,4.1965332 C17.6617056,3.6797663 18.4978789,3.42138672 19.5395508,3.42138672 C20.092939,3.42138672 20.7765259,3.50683508 21.590332,3.67773438 C19.4988502,5.36231311 17.8265037,7.36424622 16.5732422,9.68359375 C15.3199807,12.0029413 13.7005308,16.0922559 11.7148438,21.9516602 L11.7148438,21.9516602 Z" id="Shadow" fill-opacity="0.6" fill="#000000" sketch:type="MSShapeGroup"></path>
            <path d="M12.113379,22.3302734 C11.3565393,20.9630791 10.7746766,19.9580435 10.3677735,19.3151367 L9.72080088,18.3019531 L9.23251963,17.5573242 C8.16643357,15.8971596 7.05560483,14.5259168 5.9000001,13.4435546 C6.55918308,12.8983045 7.17359751,12.6256835 7.74326181,12.6256835 C8.44313511,12.6256835 9.06568747,12.8820286 9.6109376,13.3947265 C10.1561877,13.9074244 10.8438436,14.8839771 11.6739259,16.324414 C12.617941,13.2563648 13.8182871,10.3470515 15.2750001,7.59638667 C16.0806682,6.09898335 16.7988413,5.09191334 17.4295411,4.57514644 C18.0602409,4.05837953 18.8964142,3.79999995 19.938086,3.79999995 C20.4914742,3.79999995 21.1750611,3.88544832 21.9888673,4.05634761 C19.8973855,5.74092634 18.2250389,7.74285945 16.9717774,10.062207 C15.718516,12.3815545 14.099066,16.4708691 12.113379,22.3302734 L12.113379,22.3302734 Z" id="Shadow-2" fill="#FFFFFF" sketch:type="MSShapeGroup"></path>
        </g>
    </g>
</svg>