<?xml version="1.0" encoding="UTF-8" standalone="no"?>
<svg width="25px" height="25px" viewBox="0 0 25 25" version="1.1" xmlns="http://www.w3.org/2000/svg" xmlns:xlink="http://www.w3.org/1999/xlink" xmlns:sketch="http://www.bohemiancoding.com/sketch/ns">
    <!-- Generator: Sketch 3.2.2 (9983) - http://www.bohemiancoding.com/sketch -->
    <title>complete-no</title>
    <desc>Created with Sketch.</desc>
    <defs>
    </defs>
    <g id="Page-1" stroke="none" stroke-width="1" fill="none" fill-rule="evenodd" sketch:type="MSPage">
        <g id="complete-no" sketch:type="MSArtboardGroup">
            <path d="M16.6921711,18.1063847 C15.5235906,18.9815965 14.0723351,19.5 12.5,19.5 C8.63400675,19.5 5.5,16.3659932 5.5,12.5 C5.5,10.9276649 6.01840355,9.47640944 6.89361534,8.30782891 L16.6921711,18.1063847 Z M18.1063847,16.6921711 C18.9815965,15.5235906 19.5,14.0723351 19.5,12.5 C19.5,8.63400675 16.3659932,5.5 12.5,5.5 C10.9276649,5.5 9.47640944,6.01840355 8.30782891,6.89361534 L18.1063847,16.6921711 Z M12.5,21.5 C17.4705627,21.5 21.5,17.4705627 21.5,12.5 C21.5,7.52943725 17.4705627,3.5 12.5,3.5 C7.52943725,3.5 3.5,7.52943725 3.5,12.5 C3.5,17.4705627 7.52943725,21.5 12.5,21.5 Z" id="Shadow" fill-opacity="0.6" fill="#000000" sketch:type="MSShapeGroup"></path>
            <path d="M17.0921712,18.5063848 C15.9235907,19.3815965 14.4723352,19.9000001 12.9000001,19.9000001 C9.03400685,19.9000001 5.9000001,16.7659933 5.9000001,12.9000001 C5.9000001,11.327665 6.41840364,9.87640953 7.29361544,8.707829 L17.0921712,18.5063848 Z M18.5063848,17.0921712 C19.3815965,15.9235907 19.9000001,14.4723352 19.9000001,12.9000001 C19.9000001,9.03400685 16.7659933,5.9000001 12.9000001,5.9000001 C11.327665,5.9000001 9.87640953,6.41840364 8.707829,7.29361544 L18.5063848,17.0921712 Z M12.9000001,21.9000001 C17.8705628,21.9000001 21.9000001,17.8705628 21.9000001,12.9000001 C21.9000001,7.92943735 17.8705628,3.9000001 12.9000001,3.9000001 C7.92943735,3.9000001 3.9000001,7.92943735 3.9000001,12.9000001 C3.9000001,17.8705628 7.92943735,21.9000001 12.9000001,21.9000001 Z" id="Symbol" fill="#FFFFFF" sketch:type="MSShapeGroup"></path>
        </g>
    </g>
</svg>