<?xml version="1.0" encoding="UTF-8" standalone="no"?>
<svg width="25px" height="25px" viewBox="0 0 25 25" version="1.1" xmlns="http://www.w3.org/2000/svg" xmlns:xlink="http://www.w3.org/1999/xlink" xmlns:sketch="http://www.bohemiancoding.com/sketch/ns">
    <!-- Generator: Sketch 3.2.2 (9983) - http://www.bohemiancoding.com/sketch -->
    <title>rating-mature</title>
    <desc>Created with Sketch.</desc>
    <defs>
    </defs>
    <g id="Page-1" stroke="none" stroke-width="1" fill="none" fill-rule="evenodd" sketch:type="MSPage">
        <g id="rating-mature" sketch:type="MSArtboardGroup">
            <path d="M3.90000002,21.175 C3.90000002,21.175 4.47500002,21.425 5.00000002,21.425 C5.87500002,21.425 5.92500002,21.075 5.92500002,19.725 C5.92500002,15.625 5.70000002,11.05 5.70000002,7.15000005 L5.80000002,7.05000005 C6.10000002,7.75000005 6.70000002,8.80000005 7.42500002,10.05 L9.50000002,13.65 C10.3,15.025 11.15,16.5 11.725,17.825 C11.8,17.975 12.025,18 12.25,18 L12.65,18 C12.65,18 13.45,15.375 14.175,14 L16.7,9.17500005 C17.25,8.12500005 17.7,7.32500005 17.85,6.92500005 L17.95,7.00000005 L17.95,19.75 C17.95,21.1 18.7,21.45 19.575,21.45 C20.1,21.45 20.625,21.3 21.25,21.2 C20.825,17.875 20.825,14.6 20.825,11.325 C20.825,9.22500005 20.85,5.80000005 20.85,3.62500005 C20.225,3.50000005 19.725,3.50000005 19.325,3.50000005 C18.425,3.50000005 17.9,3.87500005 17.4,4.85000005 C15.775,8.00000005 13.325,12.425 12.8,13.85 L12.675,13.85 C12.5,13.375 12.075,12.525 11.5,11.5 L8.30000002,5.85000005 C7.92500002,5.17500005 7.55000002,4.55000005 7.25000002,3.97500005 C7.02500002,3.57500005 6.17500002,3.50000005 5.32500002,3.50000005 C4.80000002,3.50000005 4.17500002,3.60000005 3.87500002,3.70000005 C3.87500002,3.70000005 4.00000002,3.90000005 4.12500002,6.32500005 C4.17500002,7.52500005 4.27500002,12.775 4.27500002,14.275 C4.27500002,20.5 3.90000002,21.175 3.90000002,21.175 L3.90000002,21.175 Z" id="Shadow" fill-opacity="0.6" fill="#000000" sketch:type="MSShapeGroup"></path>
            <path d="M4.32500019,21.5750001 C4.32500019,21.5750001 4.90000019,21.8250001 5.42500019,21.8250001 C6.30000019,21.8250001 6.35000019,21.4750001 6.35000019,20.1250001 C6.35000019,16.0250001 6.12500019,11.4500001 6.12500019,7.5500001 L6.22500019,7.4500001 C6.52500019,8.1500001 7.12500019,9.2000001 7.85000019,10.4500001 L9.92500019,14.0500001 C10.7250002,15.4250001 11.5750002,16.9000001 12.1500002,18.2250001 C12.2250002,18.3750001 12.4500002,18.4000001 12.6750002,18.4000001 L13.0750002,18.4000001 C13.0750002,18.4000001 13.8750002,15.7750001 14.6000002,14.4000001 L17.1250002,9.5750001 C17.6750002,8.5250001 18.1250002,7.7250001 18.2750002,7.3250001 L18.3750002,7.4000001 L18.3750002,20.1500001 C18.3750002,21.5000001 19.1250002,21.8500001 20.0000002,21.8500001 C20.5250002,21.8500001 21.0500002,21.7000001 21.6750002,21.6000001 C21.2500002,18.2750001 21.2500002,15.0000001 21.2500002,11.7250001 C21.2500002,9.6250001 21.2750002,6.2000001 21.2750002,4.0250001 C20.6500002,3.9000001 20.1500002,3.9000001 19.7500002,3.9000001 C18.8500002,3.9000001 18.3250002,4.2750001 17.8250002,5.2500001 C16.2000002,8.4000001 13.7500002,12.8250001 13.2250002,14.2500001 L13.1000002,14.2500001 C12.9250002,13.7750001 12.5000002,12.9250001 11.9250002,11.9000001 L8.72500019,6.2500001 C8.35000019,5.5750001 7.97500019,4.9500001 7.67500019,4.3750001 C7.45000019,3.9750001 6.60000019,3.9000001 5.75000019,3.9000001 C5.22500019,3.9000001 4.60000019,4.0000001 4.30000019,4.1000001 C4.30000019,4.1000001 4.42500019,4.3000001 4.55000019,6.7250001 C4.60000019,7.9250001 4.70000019,13.1750001 4.70000019,14.6750001 C4.70000019,20.9000001 4.32500019,21.5750001 4.32500019,21.5750001 L4.32500019,21.5750001 Z" id="Symbol" fill="#FFFFFF" sketch:type="MSShapeGroup"></path>
        </g>
    </g>
</svg>