<?xml version="1.0" encoding="UTF-8" standalone="no"?>
<svg width="25px" height="25px" viewBox="0 0 25 25" version="1.1" xmlns="http://www.w3.org/2000/svg" xmlns:xlink="http://www.w3.org/1999/xlink" xmlns:sketch="http://www.bohemiancoding.com/sketch/ns">
    <!-- Generator: Sketch 3.2.2 (9983) - http://www.bohemiancoding.com/sketch -->
    <title>rating-explicit-georgia</title>
    <desc>Created with Sketch.</desc>
    <defs>
    </defs>
    <g id="Page-1" stroke="none" stroke-width="1" fill="none" fill-rule="evenodd" sketch:type="MSPage">
        <g id="rating-explicit-georgia" sketch:type="MSArtboardGroup">
            <path d="M19.7592773,15.9192383 L19.4296875,21.0217774 L5.04980469,21.0217774 L5.04980469,20.1550782 C5.29394653,20.138802 5.61946411,20.1042158 6.02636719,20.0513184 C6.43327026,19.998421 6.6977533,19.9434899 6.81982422,19.8865235 C7.08024219,19.7644526 7.26131134,19.6057627 7.36303711,19.4104493 C7.46476288,19.2151358 7.515625,18.9669286 7.515625,18.6658204 L7.515625,6.21464849 C7.515625,5.94609245 7.47086633,5.70805773 7.38134766,5.50053716 C7.29182898,5.29301659 7.10465637,5.12415434 6.81982422,4.99394536 C6.60009656,4.88815056 6.30509625,4.79456426 5.93481445,4.71318364 C5.56453265,4.63180303 5.26953235,4.58297539 5.04980469,4.56669927 L5.04980469,3.70000005 L18.453125,3.70000005 L18.453125,7.87480474 L17.5375977,7.87480474 C17.3748364,7.25631206 17.0228705,6.59917345 16.4816895,5.90336919 C15.9405084,5.20756493 15.4257837,4.82711626 14.9375,4.76201177 C14.6852201,4.72945952 14.3841163,4.7050457 14.0341797,4.68876958 C13.684243,4.67249346 13.285484,4.66435552 12.8378906,4.66435552 L10.1157227,4.66435552 L10.1157227,11.5491211 L12.0688477,11.5491211 C12.6954784,11.5491211 13.1532375,11.4901211 13.4421387,11.3721192 C13.7310399,11.2541173 13.9853505,11.0567723 14.2050781,10.7800782 C14.3841155,10.5440744 14.5367018,10.2287292 14.6628418,9.83403325 C14.7889818,9.43933727 14.8723956,9.06702654 14.9130859,8.71708989 L15.8286133,8.71708989 L15.8286133,15.4919922 L14.9130859,15.4919922 C14.8805337,15.1013653 14.7930508,14.6883649 14.6506348,14.2529786 C14.5082187,13.8175923 14.3597013,13.5022471 14.2050781,13.3069336 C13.9527982,12.9895492 13.6659359,12.7820318 13.3444824,12.684375 C13.023029,12.5867183 12.5978217,12.5378907 12.0688477,12.5378907 L10.1157227,12.5378907 L10.1157227,17.738086 C10.1157227,18.2589219 10.1523434,18.6698879 10.2255859,18.9709961 C10.2988285,19.2721044 10.4412424,19.4999667 10.652832,19.6545899 C10.8644216,19.8092131 11.1533185,19.9089028 11.5195312,19.9536622 C11.885744,19.9984215 12.4065721,20.0208008 13.0820312,20.0208008 L14.144043,20.0208008 C14.5834983,20.0208008 14.9537745,20.004525 15.2548828,19.9719727 C15.5641292,19.9394205 15.8835433,19.8804204 16.2131348,19.7949708 C16.5427263,19.7095211 16.776692,19.5935555 16.9150391,19.4470704 C17.2893899,19.0564434 17.6820455,18.4644083 18.0930176,17.6709473 C18.5039897,16.8774863 18.7664382,16.2935892 18.8803711,15.9192383 L19.7592773,15.9192383 Z" id="Shadow" fill-opacity="0.6" fill="#000000" sketch:type="MSShapeGroup"></path>
            <path d="M20.1094728,16.3192382 L19.7798829,21.4217772 L5.4000001,21.4217772 L5.4000001,20.555078 C5.64414194,20.5388019 5.96965952,20.5042157 6.3765626,20.4513183 C6.78346567,20.3984209 7.0479487,20.3434898 7.17001963,20.2865233 C7.4304376,20.1644524 7.61150675,20.0057626 7.71323252,19.8104491 C7.81495829,19.6151356 7.86582041,19.3669285 7.86582041,19.0658202 L7.86582041,6.61464834 C7.86582041,6.34609231 7.82106174,6.10805758 7.73154306,5.90053701 C7.64202439,5.69301645 7.45485178,5.5241542 7.17001963,5.39394522 C6.95029197,5.28815042 6.65529166,5.19456411 6.28500986,5.1131835 C5.91472806,5.03180288 5.61972776,4.98297525 5.4000001,4.96669912 L5.4000001,4.0999999 L18.8033204,4.0999999 L18.8033204,8.27480459 L17.8877931,8.27480459 C17.7250318,7.65631192 17.373066,6.99917331 16.8318849,6.30336905 C16.2907038,5.60756479 15.7759791,5.22711612 15.2876954,5.16201162 C15.0354155,5.12945938 14.7343117,5.10504556 14.3843751,5.08876944 C14.0344384,5.07249331 13.6356794,5.06435537 13.188086,5.06435537 L10.4659181,5.06435537 L10.4659181,11.949121 L12.4190431,11.949121 C13.0456738,11.949121 13.5034329,11.8901209 13.7923341,11.772119 C14.0812353,11.6541172 14.3355459,11.4567721 14.5552735,11.180078 C14.7343109,10.9440742 14.8868973,10.6287291 15.0130372,10.2340331 C15.1391772,9.83933712 15.222591,9.46702639 15.2632813,9.11708975 L16.1788087,9.11708975 L16.1788087,15.8919921 L15.2632813,15.8919921 C15.2307291,15.5013651 15.1432463,15.0883647 15.0008302,14.6529784 C14.8584141,14.2175921 14.7098967,13.902247 14.5552735,13.7069335 C14.3029936,13.3895491 14.0161313,13.1820316 13.6946778,13.0843749 C13.3732244,12.9867182 12.9480171,12.9378905 12.4190431,12.9378905 L10.4659181,12.9378905 L10.4659181,18.1380858 C10.4659181,18.6589218 10.5025388,19.0698877 10.5757813,19.370996 C10.6490239,19.6721043 10.7914378,19.8999666 11.0030274,20.0545897 C11.214617,20.2092129 11.5035139,20.3089027 11.8697267,20.353662 C12.2359394,20.3984214 12.7567676,20.4208007 13.4322267,20.4208007 L14.4942384,20.4208007 C14.9336937,20.4208007 15.3039699,20.4045248 15.6050782,20.3719726 C15.9143246,20.3394203 16.2337387,20.2804203 16.5633302,20.1949706 C16.8929217,20.109521 17.1268874,19.9935553 17.2652345,19.8470702 C17.6395853,19.4564433 18.0322409,18.8644082 18.443213,18.0709472 C18.8541851,17.2774862 19.1166336,16.693589 19.2305665,16.3192382 L20.1094728,16.3192382 Z" id="Symbol" fill="#FFFFFF" sketch:type="MSShapeGroup"></path>
        </g>
    </g>
</svg>