<?xml version="1.0" encoding="UTF-8" standalone="no"?>
<svg width="25px" height="25px" viewBox="0 0 25 25" version="1.1" xmlns="http://www.w3.org/2000/svg" xmlns:xlink="http://www.w3.org/1999/xlink" xmlns:sketch="http://www.bohemiancoding.com/sketch/ns">
    <!-- Generator: Sketch 3.2.2 (9983) - http://www.bohemiancoding.com/sketch -->
    <title>rating-general-audience</title>
    <desc>Created with Sketch.</desc>
    <defs>
    </defs>
    <g id="Page-1" stroke="none" stroke-width="1" fill="none" fill-rule="evenodd" sketch:type="MSPage">
        <g id="rating-general-audience" sketch:type="MSArtboardGroup">
            <path d="M4.5,13.15 C4.5,17.55 7.3,21.75 13.4,21.75 C14.55,21.75 17.125,21.4 18.675,21.4 C19.125,21.4 19.525,21.475 19.525,21.475 L19.65,21.35 C19.65,21.35 19.6,20.05 19.6,19.275 C19.6,17.925 19.75,16.225 19.75,14.875 C19.75,13.55 18.75,13.175 17.575,13.175 C17.15,13.175 16.725,13.175 16.4,13.3 C16.775,13.575 16.8,15.625 16.8,17.45 C16.8,18.225 16.75,19.15 16.675,19.775 C15.775,20.05 14.875,20.15 13.95,20.15 C9.775,20.15 7.575,16.025 7.575,12 C7.575,7.25 10.2,4.95 13.025,4.95 C14.925,4.95 16.875,6 18.2,8 L18.35,8 C18.825,7.475 19.35,6.45 19.35,5.875 C19.35,4.3 15.8,3.5 13.575,3.5 C7.775,3.5 4.5,8.425 4.5,13.15 L4.5,13.15 Z" id="Shadow" fill-opacity="0.6" fill="#000000" sketch:type="MSShapeGroup"></path>
            <path d="M4.9000001,13.5500001 C4.9000001,17.9500001 7.7000001,22.1500001 13.8000001,22.1500001 C14.9500001,22.1500001 17.5250001,21.8000001 19.0750001,21.8000001 C19.5250001,21.8000001 19.9250001,21.8750001 19.9250001,21.8750001 L20.0500001,21.7500001 C20.0500001,21.7500001 20.0000001,20.4500001 20.0000001,19.6750001 C20.0000001,18.3250001 20.1500001,16.6250001 20.1500001,15.2750001 C20.1500001,13.9500001 19.1500001,13.5750001 17.9750001,13.5750001 C17.5500001,13.5750001 17.1250001,13.5750001 16.8000001,13.7000001 C17.1750001,13.9750001 17.2000001,16.0250001 17.2000001,17.8500001 C17.2000001,18.6250001 17.1500001,19.5500001 17.0750001,20.1750001 C16.1750001,20.4500001 15.2750001,20.5500001 14.3500001,20.5500001 C10.1750001,20.5500001 7.9750001,16.4250001 7.9750001,12.4000001 C7.9750001,7.6500001 10.6000001,5.3500001 13.4250001,5.3500001 C15.3250001,5.3500001 17.2750001,6.4000001 18.6000001,8.4000001 L18.7500001,8.4000001 C19.2250001,7.8750001 19.7500001,6.8500001 19.7500001,6.2750001 C19.7500001,4.7000001 16.2000001,3.9000001 13.9750001,3.9000001 C8.1750001,3.9000001 4.9000001,8.8250001 4.9000001,13.5500001 L4.9000001,13.5500001 Z" id="Symbol" fill="#FFFFFF" sketch:type="MSShapeGroup"></path>
        </g>
    </g>
</svg>