<?xml version="1.0" encoding="UTF-8" standalone="no"?>
<svg width="25px" height="25px" viewBox="0 0 25 25" version="1.1" xmlns="http://www.w3.org/2000/svg" xmlns:xlink="http://www.w3.org/1999/xlink" xmlns:sketch="http://www.bohemiancoding.com/sketch/ns">
    <!-- Generator: Sketch 3.2.2 (9983) - http://www.bohemiancoding.com/sketch -->
    <title>rating-explicit</title>
    <desc>Created with Sketch.</desc>
    <defs>
    </defs>
    <g id="Page-1" stroke="none" stroke-width="1" fill="none" fill-rule="evenodd" sketch:type="MSPage">
        <g id="rating-explicit" sketch:type="MSArtboardGroup">
            <path d="M6.8250001,21.3 L15.6500001,21.425 C17.4750001,21.425 18.0250001,21.275 18.0250001,19.675 C18.0250001,19.475 18.0250001,19.25 18.0000001,18.975 C17.3750001,19.3 16.2750001,19.475 14.6500001,19.525 L10.0750001,19.65 C10.0500001,18.125 9.9750001,16.775 9.9750001,15.425 L9.9750001,12.825 C9.9750001,12.825 12.5250001,12.975 13.8250001,12.975 C15.1250001,12.975 15.2750001,12.3 15.3250001,11.125 C15.3250001,11.125 14.8750001,11.375 13.8500001,11.375 L10.0000001,11.375 C10.0250001,8.89999995 10.0500001,6.24999995 10.0500001,5.22499995 C10.0500001,5.22499995 11.8250001,5.62499995 14.8000001,5.62499995 C16.6000001,5.62499995 16.6750001,4.77499995 16.8250001,3.54999995 C16.8250001,3.54999995 15.1250001,3.79999995 11.3000001,3.79999995 L6.7000001,3.79999995 C6.7000001,3.79999995 6.8250001,3.99999995 6.9500001,6.42499995 C7.0000001,7.62499995 7.1000001,12.875 7.1000001,14.375 C7.1000001,20.6 6.8250001,21.3 6.8250001,21.3 L6.8250001,21.3 Z" id="Shadow" fill-opacity="0.6" fill="#000000" sketch:type="MSShapeGroup"></path>
            <path d="M7.2249999,21.6500001 L16.0499999,21.7750001 C17.8749999,21.7750001 18.4249999,21.6250001 18.4249999,20.0250001 C18.4249999,19.8250001 18.4249999,19.6000001 18.3999999,19.3250001 C17.7749999,19.6500001 16.6749999,19.8250001 15.0499999,19.8750001 L10.4749999,20.0000001 C10.4499999,18.4750001 10.3749999,17.1250001 10.3749999,15.7750001 L10.3749999,13.1750001 C10.3749999,13.1750001 12.9249999,13.3250001 14.2249999,13.3250001 C15.5249999,13.3250001 15.6749999,12.6500001 15.7249999,11.4750001 C15.7249999,11.4750001 15.2749999,11.7250001 14.2499999,11.7250001 L10.3999999,11.7250001 C10.4249999,9.2500001 10.4499999,6.6000001 10.4499999,5.5750001 C10.4499999,5.5750001 12.2249999,5.9750001 15.1999999,5.9750001 C16.9999999,5.9750001 17.0749999,5.1250001 17.2249999,3.9000001 C17.2249999,3.9000001 15.5249999,4.1500001 11.6999999,4.1500001 L7.0999999,4.1500001 C7.0999999,4.1500001 7.2249999,4.3500001 7.3499999,6.7750001 C7.3999999,7.9750001 7.4999999,13.2250001 7.4999999,14.7250001 C7.4999999,20.9500001 7.2249999,21.6500001 7.2249999,21.6500001 L7.2249999,21.6500001 Z" id="Symbol" fill="#FFFFFF" sketch:type="MSShapeGroup"></path>
        </g>
    </g>
</svg>