<?xml version="1.0" encoding="UTF-8" standalone="no"?>
<svg width="25px" height="25px" viewBox="0 0 25 25" version="1.1" xmlns="http://www.w3.org/2000/svg" xmlns:xlink="http://www.w3.org/1999/xlink" xmlns:sketch="http://www.bohemiancoding.com/sketch/ns">
    <!-- Generator: Sketch 3.2.2 (9983) - http://www.bohemiancoding.com/sketch -->
    <title>rating-mature-georgia</title>
    <desc>Created with Sketch.</desc>
    <defs>
    </defs>
    <g id="Page-1" stroke="none" stroke-width="1" fill="none" fill-rule="evenodd" sketch:type="MSPage">
        <g id="rating-mature-georgia" sketch:type="MSArtboardGroup">
            <path d="M23.1458985,21.1 L15.4920899,21.1 L15.4920899,20.2333008 C15.768784,20.2251627 16.1248188,20.19668 16.5602051,20.1478516 C16.9955914,20.0990232 17.2946607,20.0298507 17.4574219,19.9403321 C17.7097018,19.7857089 17.8948399,19.6087087 18.0128418,19.4093262 C18.1308437,19.2099437 18.1898438,18.9597021 18.1898438,18.6585938 L18.1898438,6.06093752 L18.0067383,6.06093752 L12.0985352,20.8192383 L11.4881836,20.8192383 L5.86074221,5.75576174 L5.70205081,5.75576174 L5.70205081,16.0951172 C5.70205081,17.0960988 5.76511984,17.8569961 5.89125979,18.3778321 C6.01739974,18.898668 6.21067581,19.2730132 6.47109377,19.5008789 C6.65013113,19.6717782 7.02040737,19.834537 7.58193362,19.9891602 C8.14345986,20.1437833 8.50966714,20.2251627 8.68056643,20.2333008 L8.68056643,21.1 L1.68593752,21.1 L1.68593752,20.2333008 C2.05215029,20.2007486 2.43666793,20.139714 2.83950198,20.0501953 C3.24233602,19.9606767 3.55361221,19.8264007 3.77333987,19.6473633 C4.05817202,19.4194976 4.25348257,19.0695662 4.35927737,18.5975586 C4.46507217,18.125551 4.51796877,17.3361709 4.51796877,16.2293946 L4.51796877,7.36708987 C4.51796877,6.85439199 4.45693423,6.43528811 4.33486331,6.10976565 C4.21279238,5.78424319 4.03782668,5.51976016 3.80996096,5.31630862 C3.55768105,5.09658096 3.24843935,4.93382217 2.88222659,4.82802737 C2.51601382,4.72223257 2.15387551,4.66119802 1.79580081,4.6449219 L1.79580081,3.77822268 L7.70400393,3.77822268 L12.6600586,16.7665039 L16.8958985,5.90224612 C17.0505216,5.5034811 17.1827631,5.08641171 17.292627,4.65102541 C17.4024908,4.21563912 17.4614909,3.92470779 17.4696289,3.77822268 L23.1214844,3.77822268 L23.1214844,4.6449219 C22.8936187,4.65305996 22.6026873,4.68968069 22.2486817,4.75478518 C21.894676,4.81988967 21.6362964,4.88092422 21.4735352,4.93789065 C21.1968411,5.03554739 21.0096685,5.19830618 20.9120117,5.4261719 C20.814355,5.65403762 20.7655274,5.90224477 20.7655274,6.17080081 L20.7655274,18.6585938 C20.7655274,18.9434259 20.814355,19.1834951 20.9120117,19.3788086 C21.0096685,19.5741221 21.1968411,19.7450188 21.4735352,19.8915039 C21.6200203,19.9728845 21.8804344,20.0481605 22.2547852,20.117334 C22.629136,20.1865075 22.9261708,20.2251627 23.1458985,20.2333008 L23.1458985,21.1 Z" id="Shadow" fill-opacity="0.6" fill="#000000" sketch:type="MSShapeGroup"></path>
            <path d="M23.5599608,21.5217772 L15.9061522,21.5217772 L15.9061522,20.6550779 C16.1828463,20.6469399 16.5388812,20.6184571 16.9742675,20.5696287 C17.4096538,20.5208003 17.708723,20.4516279 17.8714843,20.3621092 C18.1237642,20.207486 18.3089023,20.0304858 18.4269042,19.8311033 C18.5449061,19.6317208 18.6039062,19.3814792 18.6039062,19.0803709 L18.6039062,6.48271465 L18.4208007,6.48271465 L12.5125976,21.2410154 L11.902246,21.2410154 L6.27480459,6.17753887 L6.11611319,6.17753887 L6.11611319,16.5168943 C6.11611319,17.5178759 6.17918222,18.2787732 6.30532217,18.7996092 C6.43146212,19.3204451 6.62473819,19.6947903 6.88515615,19.9226561 C7.06419351,20.0935554 7.43446975,20.2563141 7.995996,20.4109373 C8.55752224,20.5655605 8.92372952,20.6469399 9.09462881,20.6550779 L9.09462881,21.5217772 L2.0999999,21.5217772 L2.0999999,20.6550779 C2.46621267,20.6225257 2.85073031,20.5614911 3.25356436,20.4719725 C3.6563984,20.3824538 3.96767459,20.2481778 4.18740225,20.0691404 C4.4722344,19.8412747 4.66754495,19.4913433 4.77333975,19.0193357 C4.87913455,18.5473282 4.93203115,17.7579481 4.93203115,16.6511717 L4.93203115,7.788867 C4.93203115,7.27616912 4.87099661,6.85706524 4.74892569,6.53154278 C4.62685476,6.20602032 4.45188906,5.94153728 4.22402334,5.73808575 C3.97174343,5.51835809 3.66250174,5.3555993 3.29628897,5.2498045 C2.9300762,5.1440097 2.56793789,5.08297515 2.20986319,5.06669903 L2.20986319,4.19999981 L8.11806631,4.19999981 L13.074121,17.1882811 L17.3099608,6.32402325 C17.464584,5.92525823 17.5968255,5.50818884 17.7066894,5.07280254 C17.8165532,4.63741625 17.8755532,4.34648492 17.8836913,4.19999981 L23.5355468,4.19999981 L23.5355468,5.06669903 C23.3076811,5.07483709 23.0167497,5.11145782 22.662744,5.17656231 C22.3087384,5.2416668 22.0503588,5.30270135 21.8875976,5.35966778 C21.6109035,5.45732452 21.4237309,5.62008331 21.3260741,5.84794903 C21.2284174,6.07581475 21.1795897,6.3240219 21.1795897,6.59257793 L21.1795897,19.0803709 C21.1795897,19.3652031 21.2284174,19.6052723 21.3260741,19.8005857 C21.4237309,19.9958992 21.6109035,20.166796 21.8875976,20.3132811 C22.0340827,20.3946617 22.2944967,20.4699376 22.6688476,20.5391111 C23.0431984,20.6082847 23.3402332,20.6469399 23.5599608,20.6550779 L23.5599608,21.5217772 Z" id="Shadow-2" fill="#FFFFFF" sketch:type="MSShapeGroup"></path>
        </g>
    </g>
</svg>