<?xml version="1.0" encoding="UTF-8" standalone="no"?>
<svg width="25px" height="25px" viewBox="0 0 25 25" version="1.1" xmlns="http://www.w3.org/2000/svg" xmlns:xlink="http://www.w3.org/1999/xlink" xmlns:sketch="http://www.bohemiancoding.com/sketch/ns">
    <!-- Generator: Sketch 3.2.2 (9983) - http://www.bohemiancoding.com/sketch -->
    <title>rating-teen</title>
    <desc>Created with Sketch.</desc>
    <defs>
    </defs>
    <g id="Page-1" stroke="none" stroke-width="1" fill="none" fill-rule="evenodd" sketch:type="MSPage">
        <g id="rating-teen" sketch:type="MSArtboardGroup">
            <path d="M11.1,20.05 C11.1,21.4 11.85,21.75 12.725,21.75 C13.25,21.75 13.775,21.6 14.4,21.5 C13.975,18.175 13.975,14.9 13.975,11.625 C13.975,9.675 14.05,7.8 14.075,5.775 C16.825,5.8 19.2,5.825 19.2,5.825 C19.475,5.825 19.675,5.55 19.675,5 C19.675,4.375 19.575,3.75 19.575,3.75 C19.15,3.825 18.075,4 16.85,4 C14.325,4 5.925,3.875 5.925,3.875 C5.45,3.875 5.35,4.45 5.35,4.95 C5.35,5.4 5.425,5.95 5.425,5.95 C5.95,5.875 7.05,5.725 8.325,5.725 C8.725,5.725 9.325,5.725 10.925,5.75 C10.925,6 10.95,6.3 10.975,6.65 C11.05,8.25 11.1,10.225 11.1,12.3 L11.1,20.05 Z" id="Shadow" fill-opacity="0.6" fill="#000000" sketch:type="MSShapeGroup"></path>
            <path d="M11.4499998,20.4999998 C11.4499998,21.8499998 12.1999998,22.1999998 13.0749998,22.1999998 C13.5999998,22.1999998 14.1249998,22.0499998 14.7499998,21.9499998 C14.3249998,18.6249998 14.3249998,15.3499998 14.3249998,12.0749998 C14.3249998,10.1249998 14.3999998,8.24999981 14.4249998,6.22499981 C17.1749998,6.24999981 19.5499998,6.27499981 19.5499998,6.27499981 C19.8249998,6.27499981 20.0249998,5.99999981 20.0249998,5.44999981 C20.0249998,4.82499981 19.9249998,4.19999981 19.9249998,4.19999981 C19.4999998,4.27499981 18.4249998,4.44999981 17.1999998,4.44999981 C14.6749998,4.44999981 6.27499981,4.32499981 6.27499981,4.32499981 C5.79999981,4.32499981 5.69999981,4.89999981 5.69999981,5.39999981 C5.69999981,5.84999981 5.77499981,6.39999981 5.77499981,6.39999981 C6.29999981,6.32499981 7.39999981,6.17499981 8.67499981,6.17499981 C9.07499981,6.17499981 9.67499981,6.17499981 11.2749998,6.19999981 C11.2749998,6.44999981 11.2999998,6.74999981 11.3249998,7.09999981 C11.3999998,8.69999981 11.4499998,10.6749998 11.4499998,12.7499998 L11.4499998,20.4999998 Z" id="Symbol" fill="#FFFFFF" sketch:type="MSShapeGroup"></path>
        </g>
    </g>
</svg>