<?xml version="1.0" encoding="UTF-8" standalone="no"?>
<svg width="25px" height="25px" viewBox="0 0 25 25" version="1.1" xmlns="http://www.w3.org/2000/svg" xmlns:xlink="http://www.w3.org/1999/xlink" xmlns:sketch="http://www.bohemiancoding.com/sketch/ns">
    <!-- Generator: Sketch 3.2.2 (9983) - http://www.bohemiancoding.com/sketch -->
    <title>rating-teen-georgia</title>
    <desc>Created with Sketch.</desc>
    <defs>
    </defs>
    <g id="Page-1" stroke="none" stroke-width="1" fill="none" fill-rule="evenodd" sketch:type="MSPage">
        <g id="rating-teen-georgia" sketch:type="MSArtboardGroup">
            <path d="M19.9462891,8.53881836 L19.1040039,8.53881836 C19.0307614,8.24584814 18.8985198,7.89795123 18.7072754,7.49511719 C18.5160309,7.09228314 18.30241,6.71183447 18.0664062,6.35375977 C17.8222644,5.97940894 17.5557469,5.65185687 17.2668457,5.37109375 C16.9779445,5.09033063 16.6992201,4.92960632 16.4306641,4.88891602 C16.1783842,4.85636377 15.8610045,4.83194995 15.4785156,4.81567383 C15.0960267,4.79939771 14.7420264,4.79125977 14.4165039,4.79125977 L13.7084961,4.79125977 L13.7084961,18.6462402 C13.7084961,18.9147963 13.7654617,19.1609689 13.8793945,19.3847656 C13.9933274,19.6085623 14.1927069,19.7814935 14.4775391,19.9035645 C14.6240242,19.9605309 14.9312314,20.0378413 15.3991699,20.135498 C15.8671085,20.2331548 16.2312813,20.2860514 16.4916992,20.2941895 L16.4916992,21.1608887 L8.31298828,21.1608887 L8.31298828,20.2941895 C8.540854,20.2779133 8.88875092,20.2453616 9.35668945,20.1965332 C9.82462799,20.1477048 10.1481111,20.0866703 10.3271484,20.0134277 C10.5957045,19.9076329 10.7930495,19.7550466 10.9191895,19.5556641 C11.0453294,19.3562816 11.1083984,19.089764 11.1083984,18.7561035 L11.1083984,4.79125977 L10.4003906,4.79125977 C10.1481107,4.79125977 9.83480005,4.79736322 9.46044922,4.80957031 C9.08609839,4.8217774 8.72802905,4.84822571 8.38623047,4.88891602 C8.11767444,4.92146826 7.83895001,5.08219257 7.55004883,5.37109375 C7.26114764,5.65999493 6.99463013,5.987547 6.75048828,6.35375977 C6.50634644,6.71997253 6.29069104,7.10855914 6.10351562,7.51953125 C5.91634021,7.93050336 5.78613318,8.27026233 5.71289062,8.53881836 L4.85839844,8.53881836 L4.85839844,3.83911133 L19.9462891,3.83911133 L19.9462891,8.53881836 Z" id="Shadow" fill-opacity="0.6" fill="#000000" sketch:type="MSShapeGroup"></path>
            <path d="M20.3878908,8.89970684 L19.5456057,8.89970684 C19.4723631,8.60673663 19.3401216,8.25883971 19.1488771,7.85600567 C18.9576327,7.45317162 18.7440118,7.07272295 18.508008,6.71464825 C18.2638662,6.34029742 17.9973486,6.01274535 17.7084475,5.73198223 C17.4195463,5.45121911 17.1408218,5.2904948 16.8722658,5.2498045 C16.6199859,5.21725225 16.3026063,5.19283843 15.9201174,5.17656231 C15.5376285,5.16028619 15.1836281,5.15214825 14.8581057,5.15214825 L14.1500978,5.15214825 L14.1500978,19.0071287 C14.1500978,19.2756847 14.2070634,19.5218574 14.3209963,19.7456541 C14.4349291,19.9694508 14.6343087,20.142382 14.9191408,20.2644529 C15.0656259,20.3214194 15.3728331,20.3987298 15.8407717,20.4963865 C16.3087102,20.5940433 16.672883,20.6469399 16.933301,20.6550779 L16.933301,21.5217772 L8.75459003,21.5217772 L8.75459003,20.6550779 C8.98245576,20.6388018 9.33035267,20.6062501 9.79829121,20.5574217 C10.2662297,20.5085933 10.5897128,20.4475588 10.7687502,20.3743162 C11.0373062,20.2685214 11.2346513,20.1159351 11.3607912,19.9165525 C11.4869312,19.71717 11.5500002,19.4506525 11.5500002,19.116992 L11.5500002,5.15214825 L10.8419924,5.15214825 C10.5897125,5.15214825 10.2764018,5.1582517 9.90205097,5.17045879 C9.52770014,5.18266589 9.16963081,5.20911419 8.82783222,5.2498045 C8.55927619,5.28235674 8.28055177,5.44308105 7.99165058,5.73198223 C7.7027494,6.02088342 7.43623188,6.34843548 7.19209003,6.71464825 C6.94794819,7.08086102 6.73229279,7.46944762 6.54511738,7.88041973 C6.35794196,8.29139184 6.22773493,8.63115081 6.15449238,8.89970684 L5.30000019,8.89970684 L5.30000019,4.19999981 L20.3878908,4.19999981 L20.3878908,8.89970684 Z" id="Symbol" fill="#FFFFFF" sketch:type="MSShapeGroup"></path>
        </g>
    </g>
</svg>