<?xml version="1.0" encoding="UTF-8" standalone="no"?>
<svg width="25px" height="25px" viewBox="0 0 25 25" version="1.1" xmlns="http://www.w3.org/2000/svg" xmlns:xlink="http://www.w3.org/1999/xlink" xmlns:sketch="http://www.bohemiancoding.com/sketch/ns">
    <!-- Generator: Sketch 3.2.2 (9983) - http://www.bohemiancoding.com/sketch -->
    <title>rating-general-audience-georgia</title>
    <desc>Created with Sketch.</desc>
    <defs>
    </defs>
    <g id="Page-1" stroke="none" stroke-width="1" fill="none" fill-rule="evenodd" sketch:type="MSPage">
        <g id="rating-general-audience-georgia" sketch:type="MSArtboardGroup">
            <path d="M20.956543,14.0786133 C20.7612295,14.1030275 20.4987809,14.1416827 20.1691895,14.1945801 C19.839598,14.2474775 19.5730804,14.3227534 19.3696289,14.4204102 C19.1254871,14.5424811 18.9525558,14.7154123 18.8508301,14.939209 C18.7491043,15.1630057 18.6982422,15.4254542 18.6982422,15.7265625 L18.6982422,17.0693359 C18.6982422,18.0459033 18.7043456,18.7050764 18.7165527,19.046875 C18.7287598,19.3886736 18.7430012,19.6694325 18.7592773,19.8891602 C17.6769152,20.3774438 16.5986382,20.7517891 15.5244141,21.012207 C14.4501899,21.272625 13.3963268,21.402832 12.362793,21.402832 C11.2560166,21.402832 10.1899465,21.1953146 9.16455078,20.7802734 C8.13915503,20.3652323 7.24398169,19.7752317 6.47900391,19.0102539 C5.70588806,18.2371381 5.09147363,17.2972061 4.63574219,16.1904297 C4.18001074,15.0836533 3.95214844,13.8466865 3.95214844,12.4794922 C3.95214844,11.1611262 4.16983832,9.93840082 4.60522461,8.8112793 C5.0406109,7.68415778 5.65705981,6.70557056 6.45458984,5.87548828 C7.22770569,5.06168213 8.14932733,4.42895734 9.21948242,3.97729492 C10.2896375,3.52563251 11.4350525,3.29980469 12.6557617,3.29980469 C13.6323291,3.29980469 14.4827438,3.41780481 15.2070312,3.65380859 C15.9313187,3.88981238 16.570147,4.17464026 17.1235352,4.50830078 L17.6240234,3.67822266 L18.6005859,3.67822266 L18.7104492,9.73291016 L17.7094727,9.73291016 C17.5385734,9.06558911 17.3269869,8.4084505 17.074707,7.76147461 C16.8224271,7.11449872 16.4969095,6.53467053 16.0981445,6.02197266 C15.6993795,5.50927478 15.2131376,5.10034332 14.6394043,4.79516602 C14.065671,4.48998871 13.3800496,4.33740234 12.5825195,4.33740234 C11.7117469,4.33740234 10.9345737,4.51440253 10.2509766,4.8684082 C9.56737939,5.22241388 8.97330981,5.74934546 8.46875,6.44921875 C7.97232825,7.12467786 7.58984509,7.96695459 7.32128906,8.97607422 C7.05273303,9.98519385 6.91845703,11.1122985 6.91845703,12.3574219 C6.91845703,13.4560602 7.05069855,14.491613 7.31518555,15.4641113 C7.57967255,16.4366097 7.96419019,17.2768519 8.46875,17.9848633 C8.97330981,18.7091508 9.60400012,19.2788065 10.3608398,19.6938477 C11.1176796,20.1088888 11.9762322,20.3164062 12.9365234,20.3164062 C13.6526729,20.3164062 14.3057425,20.2065441 14.895752,19.9868164 C15.4857614,19.7670887 15.9028308,19.5351575 16.1469727,19.2910156 C16.2120771,18.8678364 16.2466634,18.4405946 16.2507324,18.0092773 C16.2548015,17.5779601 16.2568359,17.2117528 16.2568359,16.9106445 L16.2568359,15.9584961 C16.2568359,15.6166975 16.2100428,15.3135593 16.1164551,15.0490723 C16.0228674,14.7845853 15.8295913,14.5913092 15.5366211,14.4692383 C15.2680651,14.3471674 14.9038923,14.2556155 14.4440918,14.1945801 C13.9842913,14.1335446 13.6241875,14.0948894 13.3637695,14.0786133 L13.3637695,13.1875 L20.956543,13.1875 L20.956543,14.0786133 Z" id="Shadow" fill-opacity="0.6" fill="#000000" sketch:type="MSShapeGroup"></path>
            <path d="M21.4043946,14.4788086 C21.2090812,14.5032228 20.9466326,14.541878 20.6170411,14.5947754 C20.2874496,14.6476728 20.0209321,14.7229488 19.8174806,14.8206055 C19.5733387,14.9426764 19.4004075,15.1156077 19.2986817,15.3394043 C19.196956,15.563201 19.1460938,15.8256496 19.1460938,16.1267579 L19.1460938,17.4695313 C19.1460938,18.4460987 19.1521973,19.1052718 19.1644044,19.4470704 C19.1766115,19.7888689 19.1908529,20.0696279 19.207129,20.2893555 C18.1247668,20.7776392 17.0464898,21.1519844 15.9722657,21.4124024 C14.8980416,21.6728204 13.8441784,21.8030274 12.8106446,21.8030274 C11.7038683,21.8030274 10.6377982,21.5955099 9.61240244,21.1804688 C8.58700669,20.7654277 7.69183335,20.175427 6.92685556,19.4104493 C6.15373972,18.6373334 5.53932529,17.6974014 5.08359385,16.590625 C4.6278624,15.4838487 4.4000001,14.2468819 4.4000001,12.8796875 C4.4000001,11.5613216 4.61768998,10.3385962 5.05307627,9.21147466 C5.48846256,8.08435314 6.10491147,7.10576592 6.9024415,6.27568364 C7.67555735,5.46187749 8.59717899,4.8291527 9.66733408,4.37749028 C10.7374892,3.92582787 11.8829041,3.70000005 13.1036134,3.70000005 C14.0801808,3.70000005 14.9305954,3.81800017 15.6548829,4.05400395 C16.3791704,4.29000774 17.0179986,4.57483562 17.5713868,4.90849614 L18.0718751,4.07841802 L19.0484376,4.07841802 L19.1583009,10.1331055 L18.1573243,10.1331055 C17.986425,9.46578447 17.7748386,8.80864586 17.5225587,8.16166997 C17.2702788,7.51469408 16.9447612,6.93486589 16.5459962,6.42216802 C16.1472312,5.90947014 15.6609893,5.50053868 15.087256,5.19536138 C14.5135226,4.89018407 13.8279012,4.7375977 13.0303712,4.7375977 C12.1595986,4.7375977 11.3824254,4.91459789 10.6988282,5.26860356 C10.0152311,5.62260924 9.42116147,6.14954082 8.91660166,6.84941411 C8.4201799,7.52487322 8.03769675,8.36714995 7.76914072,9.37626958 C7.50058469,10.3853892 7.36630869,11.5124938 7.36630869,12.7576172 C7.36630869,13.8562555 7.49855021,14.8918083 7.7630372,15.8643067 C8.0275242,16.836805 8.41204184,17.6770473 8.91660166,18.3850586 C9.42116147,19.1093461 10.0518518,19.6790019 10.8086915,20.094043 C11.5655312,20.5090842 12.4240838,20.7166016 13.3843751,20.7166016 C14.1005245,20.7166016 14.7535942,20.6067394 15.3436036,20.3870118 C15.9336131,20.1672841 16.3506825,19.9353528 16.5948243,19.691211 C16.6599288,19.2680318 16.694515,18.84079 16.6985841,18.4094727 C16.7026531,17.9781554 16.7046876,17.6119482 16.7046876,17.3108399 L16.7046876,16.3586915 C16.7046876,16.0168929 16.6578944,15.7137546 16.5643067,15.4492676 C16.470719,15.1847806 16.277443,14.9915046 15.9844728,14.8694336 C15.7159167,14.7473627 15.3517439,14.6558109 14.8919435,14.5947754 C14.432143,14.53374 14.0720392,14.4950848 13.8116212,14.4788086 L13.8116212,13.5876954 L21.4043946,13.5876954 L21.4043946,14.4788086 Z" id="Symbol" fill="#FFFFFF" sketch:type="MSShapeGroup"></path>
        </g>
    </g>
</svg>