<?xml version="1.0" encoding="UTF-8" standalone="no"?>
<svg width="25px" height="25px" viewBox="0 0 25 25" version="1.1" xmlns="http://www.w3.org/2000/svg" xmlns:xlink="http://www.w3.org/1999/xlink" xmlns:sketch="http://www.bohemiancoding.com/sketch/ns">
    <!-- Generator: Sketch 3.2.2 (9983) - http://www.bohemiancoding.com/sketch -->
    <title>warning-yes</title>
    <desc>Created with Sketch.</desc>
    <defs>
    </defs>
    <g id="Page-1" stroke="none" stroke-width="1" fill="none" fill-rule="evenodd" sketch:type="MSPage">
        <g id="warning-yes" sketch:type="MSArtboardGroup">
            <path d="M12.8499996,17.375 C13.0499996,17.375 13.3249996,17.325 13.6499996,17.275 C13.3749996,16.9 13.1999996,16.025 13.1999996,15.525 C13.1999996,11.825 14.6249996,8.02499995 14.6249996,4.57499995 C14.6249996,3.59999995 13.1249996,3.02499995 11.8999996,3.02499995 C11.4749996,3.02499995 10.8749996,3.12499995 10.3999996,3.24999995 L10.3999996,3.37499995 C11.0999996,4.19999995 11.7249996,7.22499995 11.7249996,10.65 C11.7249996,12.475 11.6999996,14.3 11.6999996,15.7 C11.6999996,16.825 12.0249996,17.375 12.8499996,17.375 L12.8499996,17.375 Z M11.2249996,20.525 C11.2249996,21.35 11.9249996,22.05 12.7499996,22.05 C13.5999996,22.05 14.2999996,21.35 14.2999996,20.525 C14.2999996,19.675 13.5999996,18.975 12.7499996,18.975 C11.9249996,18.975 11.2249996,19.675 11.2249996,20.525 L11.2249996,20.525 Z" id="Shadow" fill-opacity="0.6" fill="#000000" sketch:type="MSShapeGroup"></path>
            <path d="M13.2500002,17.7500001 C13.4500002,17.7500001 13.7250002,17.7000001 14.0500002,17.6500001 C13.7750002,17.2750001 13.6000002,16.4000001 13.6000002,15.9000001 C13.6000002,12.2000001 15.0250002,8.4000001 15.0250002,4.9500001 C15.0250002,3.9750001 13.5250002,3.4000001 12.3000002,3.4000001 C11.8750002,3.4000001 11.2750002,3.5000001 10.8000002,3.6250001 L10.8000002,3.7500001 C11.5000002,4.5750001 12.1250002,7.6000001 12.1250002,11.0250001 C12.1250002,12.8500001 12.1000002,14.6750001 12.1000002,16.0750001 C12.1000002,17.2000001 12.4250002,17.7500001 13.2500002,17.7500001 L13.2500002,17.7500001 Z M11.6250002,20.9000001 C11.6250002,21.7250001 12.3250002,22.4250001 13.1500002,22.4250001 C14.0000002,22.4250001 14.7000002,21.7250001 14.7000002,20.9000001 C14.7000002,20.0500001 14.0000002,19.3500001 13.1500002,19.3500001 C12.3250002,19.3500001 11.6250002,20.0500001 11.6250002,20.9000001 L11.6250002,20.9000001 Z" id="Symbol" fill="#FFFFFF" sketch:type="MSShapeGroup"></path>
        </g>
    </g>
</svg>