<?xml version="1.0" encoding="UTF-8" standalone="no"?>
<svg width="25px" height="25px" viewBox="0 0 25 25" version="1.1" xmlns="http://www.w3.org/2000/svg" xmlns:xlink="http://www.w3.org/1999/xlink" xmlns:sketch="http://www.bohemiancoding.com/sketch/ns">
    <!-- Generator: Sketch 3.2.2 (9983) - http://www.bohemiancoding.com/sketch -->
    <title>warning-choosenotto</title>
    <desc>Created with Sketch.</desc>
    <defs>
    </defs>
    <g id="Page-1" stroke="none" stroke-width="1" fill="none" fill-rule="evenodd" sketch:type="MSPage">
        <g id="warning-choosenotto" sketch:type="MSArtboardGroup">
            <path d="M15.358,14.814 C15.502,14.814 15.7,14.778 15.934,14.742 C15.736,14.472 15.61,14.022 15.61,13.662 C15.61,11.394 19.444,10.566 19.444,8.28 C19.444,7.146 18.544,6.228 16.222,5.508 C15.25,5.202 14.53,4.824 14.368,4.302 L14.278,4.302 C14.026,5.418 14.008,5.598 14.008,5.796 C14.008,8.334 17.41,7.47 17.41,8.892 C17.41,10.242 14.53,11.214 14.53,13.608 C14.53,14.418 14.764,14.814 15.358,14.814 L15.358,14.814 Z M14.188,17.082 C14.188,17.676 14.692,18.18 15.286,18.18 C15.898,18.18 16.402,17.676 16.402,17.082 C16.402,16.47 15.898,15.966 15.286,15.966 C14.692,15.966 14.188,16.47 14.188,17.082 L14.188,17.082 Z" id="Shadow" fill-opacity="0.6" fill="#000000" sketch:type="MSShapeGroup"></path>
            <path d="M15.7499996,15.2119998 C15.8939996,15.2119998 16.0919996,15.1759998 16.3259996,15.1399998 C16.1279996,14.8699998 16.0019996,14.4199998 16.0019996,14.0599998 C16.0019996,11.7919998 19.8359996,10.9639998 19.8359996,8.67799981 C19.8359996,7.54399981 18.9359996,6.62599981 16.6139996,5.90599981 C15.6419996,5.59999981 14.9219996,5.22199981 14.7599996,4.69999981 L14.6699996,4.69999981 C14.4179996,5.81599981 14.3999996,5.99599981 14.3999996,6.19399981 C14.3999996,8.73199981 17.8019996,7.86799981 17.8019996,9.28999981 C17.8019996,10.6399998 14.9219996,11.6119998 14.9219996,14.0059998 C14.9219996,14.8159998 15.1559996,15.2119998 15.7499996,15.2119998 L15.7499996,15.2119998 Z M14.5799996,17.4799998 C14.5799996,18.0739998 15.0839996,18.5779998 15.6779996,18.5779998 C16.2899996,18.5779998 16.7939996,18.0739998 16.7939996,17.4799998 C16.7939996,16.8679998 16.2899996,16.3639998 15.6779996,16.3639998 C15.0839996,16.3639998 14.5799996,16.8679998 14.5799996,17.4799998 L14.5799996,17.4799998 Z" id="Symbol" fill="#FFFFFF" sketch:type="MSShapeGroup"></path>
            <path d="M9.65,17.375 C9.85,17.375 10.125,17.325 10.45,17.275 C10.175,16.9 10,16.025 10,15.525 C10,11.825 11.425,8.02499995 11.425,4.57499995 C11.425,3.59999995 9.925,3.02499995 8.7,3.02499995 C8.275,3.02499995 7.675,3.12499995 7.2,3.24999995 L7.2,3.37499995 C7.9,4.19999995 8.525,7.22499995 8.525,10.65 C8.525,12.475 8.5,14.3 8.5,15.7 C8.5,16.825 8.825,17.375 9.65,17.375 L9.65,17.375 Z M8.025,20.525 C8.025,21.35 8.725,22.05 9.55,22.05 C10.4,22.05 11.1,21.35 11.1,20.525 C11.1,19.675 10.4,18.975 9.55,18.975 C8.725,18.975 8.025,19.675 8.025,20.525 L8.025,20.525 Z" id="Shadow" fill-opacity="0.6" fill="#000000" sketch:type="MSShapeGroup"></path>
            <path d="M10.0499999,17.7500001 C10.2499999,17.7500001 10.5249999,17.7000001 10.8499999,17.6500001 C10.5749999,17.2750001 10.3999999,16.4000001 10.3999999,15.9000001 C10.3999999,12.2000001 11.8249999,8.4000001 11.8249999,4.9500001 C11.8249999,3.9750001 10.3249999,3.4000001 9.0999999,3.4000001 C8.6749999,3.4000001 8.0749999,3.5000001 7.5999999,3.6250001 L7.5999999,3.7500001 C8.2999999,4.5750001 8.9249999,7.6000001 8.9249999,11.0250001 C8.9249999,12.8500001 8.8999999,14.6750001 8.8999999,16.0750001 C8.8999999,17.2000001 9.2249999,17.7500001 10.0499999,17.7500001 L10.0499999,17.7500001 Z M8.4249999,20.9000001 C8.4249999,21.7250001 9.1249999,22.4250001 9.9499999,22.4250001 C10.7999999,22.4250001 11.4999999,21.7250001 11.4999999,20.9000001 C11.4999999,20.0500001 10.7999999,19.3500001 9.9499999,19.3500001 C9.1249999,19.3500001 8.4249999,20.0500001 8.4249999,20.9000001 L8.4249999,20.9000001 Z" id="Symbol" fill="#FFFFFF" sketch:type="MSShapeGroup"></path>
        </g>
    </g>
</svg>